<svg width="60" height="40" viewBox="0 0 60 40" fill="none" xmlns="http://www.w3.org/2000/svg">
<path d="M0 10C0 4.47715 4.47715 0 10 0H60V40H0V10Z" fill="#1C62CD"/>
<path d="M45 9L44.0713 11.5H41.66L37.3175 26.5H20.7687L15 12.75H36.015L35.31 15.25H18.76L22.4313 24H35.4662L39.7563 9H45ZM25.625 27.75C24.59 27.75 23.75 28.59 23.75 29.625C23.75 30.6612 24.59 31.5 25.625 31.5C26.66 31.5 27.5 30.6612 27.5 29.625C27.5 28.59 26.66 27.75 25.625 27.75ZM34.25 19L31.875 27.75C30.84 27.75 30 28.5888 30 29.625C30 30.6612 30.84 31.5 31.875 31.5C32.91 31.5 33.75 30.6612 33.75 29.625C33.75 28.59 32.91 27.75 31.875 27.75L34.25 19Z" fill="white"/>
</svg>
